<svg width="32" height="32" viewBox="0 0 32 32" fill="none" xmlns="http://www.w3.org/2000/svg">
<path fill-rule="evenodd" clip-rule="evenodd" d="M31.3943 3.52929C32.2019 2.72192 32.2019 1.4129 31.3943 0.605529C30.5871 -0.201843 29.278 -0.201843 28.4708 0.605529L16 13.0763L3.52932 0.605529C2.72191 -0.201843 1.4129 -0.201843 0.605528 0.605529C-0.201843 1.4129 -0.201843 2.72192 0.605528 3.52929L13.0762 16L0.605528 28.4707C-0.201843 29.2783 -0.201843 30.5871 0.605528 31.3946C1.4129 32.2018 2.72191 32.2018 3.52932 31.3946L16 18.9238L28.4708 31.3946C29.278 32.2018 30.5871 32.2018 31.3943 31.3946C32.2019 30.5871 32.2019 29.2783 31.3943 28.4707L18.9238 16L31.3943 3.52929Z" fill="white" fill-opacity="0.2"/>
</svg>
