<svg width="938" height="262" viewBox="0 0 938 262" fill="none" xmlns="http://www.w3.org/2000/svg">
<path d="M155.57 88.9752L103.82 14.2252C103.82 14.2252 82.812 176.762 32.7594 102.945C29.6345 101.746 13.4443 156.356 49.1953 170.508C51.5922 171.451 56.9543 172.519 63.72 171.985C74.5227 125.377 108.125 85.6875 155.587 88.9706L155.57 88.9752Z" fill="white"/>
<path d="M166.375 93.4641C164.53 92.7332 160.904 91.921 156.245 91.836C100.893 105.821 79.0947 154.204 88.618 200.141C92.1427 217.125 100.076 233.739 112.091 247.187C98.3103 211.76 135.164 99.5387 182.811 161.027C185.936 162.226 202.126 107.615 166.375 93.4641ZM99.0822 146.866C99.6237 145.946 100.139 144.997 100.65 144.032C100.144 145.014 99.6282 145.963 99.0822 146.866ZM100.985 143.365C101.286 142.78 101.566 142.183 101.862 141.58C101.587 142.195 101.286 142.78 100.985 143.365ZM108.598 125.343C108.895 124.74 109.17 124.126 109.476 123.558C109.175 124.143 108.895 124.74 108.598 125.343ZM109.811 122.891C110.317 121.909 110.854 120.972 111.374 120.04C110.849 120.955 110.317 121.909 109.811 122.891Z" fill="white"/>
<path d="M241.264 81.5855H258.93V92.9883H228.656V36.7775H241.264V81.5855ZM274.513 81.5855H292.18V92.9883H261.906V36.7775H291.296V48.1803H274.513V59.8239H284.471V71.2267H274.513V81.5855ZM316.484 36.7775L333.347 92.9883H319.856L318.572 87.2869H307.651L306.366 92.9883H292.875L309.739 36.7775H316.484ZM316.002 75.8842L313.111 63.5178L310.301 75.8842H316.002ZM353.929 73.4751V62.0724H372.558V90.7399C369.775 91.8105 366.777 92.6403 363.565 93.2292C360.353 93.8181 357.194 94.1125 354.089 94.1125C351.573 94.1125 349.164 93.8984 346.862 93.4701C344.614 93.0418 342.606 92.3726 340.839 91.4626C339.126 90.4989 337.761 89.2944 336.744 87.849C335.727 86.4036 335.218 84.637 335.218 82.5491V47.3773C335.218 45.9318 335.486 44.5667 336.021 43.2819C336.61 41.9971 337.36 40.8996 338.27 39.9896C339.233 39.026 340.358 38.2765 341.643 37.7411C342.927 37.1523 344.292 36.8578 345.738 36.8578H370.31V48.2606H351.921C350.743 48.2606 349.753 48.6621 348.95 49.4651C348.147 50.2681 347.745 51.2585 347.745 52.4362V76.1251C347.745 78.2129 348.468 79.8457 349.914 81.0234C351.359 82.2012 353.233 82.79 355.535 82.79C356.98 82.79 358.64 82.4956 360.513 81.9067V73.4751H353.929ZM402.858 36.7775H415.545V78.4538C415.545 80.4345 415.17 82.3082 414.421 84.0749C413.672 85.8415 412.628 87.394 411.289 88.7323C410.004 90.0707 408.479 91.1146 406.712 91.8641C404.945 92.6135 403.072 92.9883 401.091 92.9883H391.856C389.876 92.9883 388.029 92.6135 386.316 91.8641C384.603 91.1146 383.104 90.0974 381.819 88.8126C380.534 87.5278 379.517 86.0289 378.767 84.3158C378.018 82.6027 377.643 80.7558 377.643 78.775V36.7775H390.331V76.1251C390.331 77.6775 390.812 78.9891 391.776 80.0598C392.793 81.077 394.078 81.5855 395.631 81.5855H397.558C399.11 81.5855 400.368 81.077 401.332 80.0598C402.349 78.9891 402.858 77.6775 402.858 76.1251V36.7775ZM434.253 81.5855H451.919V92.9883H421.646V36.7775H451.036V48.1803H434.253V59.8239H444.21V71.2267H434.253V81.5855ZM501.438 36.7775C503.151 36.7775 504.73 37.0987 506.176 37.7411C507.675 38.3835 508.959 39.2669 510.03 40.3911C511.154 41.4618 512.038 42.7466 512.68 44.2455C513.322 45.6909 513.644 47.2702 513.644 48.9833V80.7825C513.644 82.4421 513.322 84.0213 512.68 85.5203C512.038 87.0192 511.154 88.3308 510.03 89.455C508.959 90.5257 507.675 91.3823 506.176 92.0247C504.73 92.6671 503.151 92.9883 501.438 92.9883H487.947C486.288 92.9883 484.709 92.6671 483.21 92.0247C481.711 91.3823 480.399 90.5257 479.275 89.455C478.204 88.3308 477.348 87.0192 476.705 85.5203C476.063 84.0213 475.742 82.4421 475.742 80.7825V48.7424C475.742 47.0828 476.063 45.5303 476.705 44.0849C477.348 42.6395 478.204 41.3815 479.275 40.3108C480.345 39.1866 481.604 38.33 483.049 37.7411C484.494 37.0987 486.047 36.7775 487.706 36.7775H501.438ZM500.956 52.7574C500.956 51.4726 500.501 50.4019 499.591 49.5454C498.681 48.6353 497.61 48.1803 496.379 48.1803H493.006C491.775 48.1803 490.704 48.6353 489.794 49.5454C488.884 50.4019 488.429 51.4726 488.429 52.7574V77.0084C488.429 78.2932 488.884 79.3906 489.794 80.3007C490.704 81.1573 491.775 81.5855 493.006 81.5855H496.379C497.61 81.5855 498.681 81.1573 499.591 80.3007C500.501 79.3906 500.956 78.2932 500.956 77.0084V52.7574ZM519.591 36.7775H548.981V48.1803H532.198V63.1966H542.156V74.5993H532.198V92.9883H519.591V36.7775ZM585.131 81.5855H602.797V92.9883H572.524V36.7775H585.131V81.5855ZM618.381 81.5855H636.047V92.9883H605.773V36.7775H635.164V48.1803H618.381V59.8239H628.338V71.2267H618.381V81.5855ZM658.665 73.4751V62.0724H677.295V90.7399C674.511 91.8105 671.513 92.6403 668.301 93.2292C665.089 93.8181 661.93 94.1125 658.825 94.1125C656.309 94.1125 653.9 93.8984 651.598 93.4701C649.35 93.0418 647.342 92.3726 645.576 91.4626C643.863 90.4989 642.498 89.2944 641.48 87.849C640.463 86.4036 639.955 84.637 639.955 82.5491V47.3773C639.955 45.9318 640.222 44.5667 640.758 43.2819C641.347 41.9971 642.096 40.8996 643.006 39.9896C643.97 39.026 645.094 38.2765 646.379 37.7411C647.664 37.1523 649.029 36.8578 650.474 36.8578H675.046V48.2606H656.657C655.48 48.2606 654.489 48.6621 653.686 49.4651C652.883 50.2681 652.482 51.2585 652.482 52.4362V76.1251C652.482 78.2129 653.204 79.8457 654.65 81.0234C656.095 82.2012 657.969 82.79 660.271 82.79C661.716 82.79 663.376 82.4956 665.25 81.9067V73.4751H658.665ZM695.388 81.5855H713.054V92.9883H682.781V36.7775H712.171V48.1803H695.388V59.8239H705.346V71.2267H695.388V81.5855ZM742.739 36.7775H755.346V92.9883H748.681V92.908L729.971 66.248V92.9883H717.364V36.7775H724.029L742.739 64.4011V36.7775ZM780.136 73.4751V62.0724H798.766V90.7399C795.982 91.8105 792.984 92.6403 789.772 93.2292C786.56 93.8181 783.402 94.1125 780.297 94.1125C777.78 94.1125 775.371 93.8984 773.069 93.4701C770.821 93.0418 768.814 92.3726 767.047 91.4626C765.334 90.4989 763.969 89.2944 762.952 87.849C761.934 86.4036 761.426 84.637 761.426 82.5491V47.3773C761.426 45.9318 761.694 44.5667 762.229 43.2819C762.818 41.9971 763.567 40.8996 764.477 39.9896C765.441 39.026 766.565 38.2765 767.85 37.7411C769.135 37.1523 770.5 36.8578 771.945 36.8578H796.517V48.2606H778.128C776.951 48.2606 775.96 48.6621 775.157 49.4651C774.354 50.2681 773.953 51.2585 773.953 52.4362V76.1251C773.953 78.2129 774.676 79.8457 776.121 81.0234C777.566 82.2012 779.44 82.79 781.742 82.79C783.187 82.79 784.847 82.4956 786.721 81.9067V73.4751H780.136ZM815.334 52.7574C815.334 53.8817 815.869 54.9256 816.94 55.8892C818.01 56.7993 819.349 57.7361 820.955 58.6997C822.561 59.6098 824.301 60.6002 826.174 61.6709C828.048 62.688 829.788 63.839 831.394 65.1238C833 66.4086 834.338 67.854 835.409 69.4601C836.48 71.0661 837.015 72.9398 837.015 75.0811V80.7825C837.015 82.4421 836.694 84.0213 836.051 85.5203C835.409 87.0192 834.526 88.3308 833.401 89.455C832.331 90.5257 831.046 91.3823 829.547 92.0247C828.101 92.6671 826.522 92.9883 824.809 92.9883H803.288V81.5855H819.911C821.196 81.5855 822.266 81.1573 823.123 80.3007C824.033 79.3906 824.488 78.2932 824.488 77.0084C824.488 75.6165 823.953 74.4387 822.882 73.4751C821.811 72.458 820.473 71.5211 818.867 70.6646C817.261 69.7545 815.521 68.8444 813.647 67.9343C811.774 67.0243 810.034 65.9804 808.428 64.8026C806.822 63.5713 805.483 62.1259 804.413 60.4663C803.342 58.8068 802.807 56.7725 802.807 54.3635V48.7424C802.807 47.0828 803.128 45.5303 803.77 44.0849C804.413 42.6395 805.269 41.3815 806.34 40.3108C807.411 39.1866 808.669 38.33 810.114 37.7411C811.559 37.0987 813.112 36.7775 814.771 36.7775H835.81V48.1803H819.911C818.626 48.1803 817.528 48.6353 816.618 49.5454C815.762 50.4019 815.334 51.4726 815.334 52.7574Z" fill="white"/>
<path d="M224.945 124.712H282.735V142.436H263.014V212.084H243.418V142.436H224.945V124.712ZM326.428 124.712C329.091 124.712 331.545 125.212 333.792 126.21C336.122 127.209 338.119 128.582 339.783 130.329C341.531 131.993 342.904 133.99 343.902 136.32C344.901 138.567 345.4 141.022 345.4 143.684V193.112C345.4 195.691 344.901 198.146 343.902 200.476C342.904 202.806 341.531 204.845 339.783 206.592C338.119 208.256 336.122 209.588 333.792 210.586C331.545 211.585 329.091 212.084 326.428 212.084H305.459C302.879 212.084 300.424 211.585 298.094 210.586C295.765 209.588 293.726 208.256 291.978 206.592C290.314 204.845 288.983 202.806 287.984 200.476C286.986 198.146 286.487 195.691 286.487 193.112V143.31C286.487 140.73 286.986 138.317 287.984 136.071C288.983 133.824 290.314 131.868 291.978 130.204C293.643 128.457 295.598 127.125 297.845 126.21C300.092 125.212 302.505 124.712 305.084 124.712H326.428ZM325.679 149.551C325.679 147.554 324.972 145.89 323.557 144.558C322.142 143.144 320.478 142.436 318.564 142.436H313.322C311.408 142.436 309.744 143.144 308.329 144.558C306.915 145.89 306.208 147.554 306.208 149.551V187.245C306.208 189.243 306.915 190.948 308.329 192.363C309.744 193.694 311.408 194.36 313.322 194.36H318.564C320.478 194.36 322.142 193.694 323.557 192.363C324.972 190.948 325.679 189.243 325.679 187.245V149.551ZM393.213 124.712H412.934V189.492C412.934 192.571 412.351 195.483 411.186 198.229C410.021 200.975 408.399 203.388 406.318 205.469C404.321 207.549 401.95 209.172 399.204 210.337C396.458 211.502 393.545 212.084 390.467 212.084H376.113C373.034 212.084 370.163 211.502 367.5 210.337C364.838 209.172 362.508 207.591 360.511 205.594C358.514 203.596 356.933 201.267 355.768 198.604C354.603 195.941 354.02 193.07 354.02 189.991V124.712H373.741V185.872C373.741 188.286 374.49 190.324 375.988 191.988C377.569 193.57 379.566 194.36 381.979 194.36H384.975C387.388 194.36 389.343 193.57 390.841 191.988C392.422 190.324 393.213 188.286 393.213 185.872V124.712ZM468.099 173.266C470.096 174.597 471.76 176.303 473.091 178.383C474.506 180.381 475.505 182.752 476.087 185.498L481.329 212.084H461.733L456.491 189.243C455.825 187.245 454.951 185.748 453.87 184.749C452.788 183.667 451.29 183.127 449.376 183.127H442.012V212.084H422.416V124.712H459.362C462.024 124.712 464.479 125.212 466.726 126.21C469.056 127.209 471.053 128.582 472.717 130.329C474.464 131.993 475.837 133.99 476.836 136.32C477.834 138.567 478.334 141.022 478.334 143.684V156.416C478.334 160.16 477.377 163.53 475.463 166.526C473.632 169.438 471.178 171.685 468.099 173.266ZM458.987 149.551C458.987 147.554 458.28 145.89 456.865 144.558C455.451 143.144 453.786 142.436 451.873 142.436H442.012V165.403H451.873C453.786 165.403 455.451 164.737 456.865 163.405C458.28 161.991 458.987 160.285 458.987 158.288V149.551ZM527.923 124.712H547.519V212.084H537.159V211.959L508.077 170.52V212.084H488.481V124.712H498.841L527.923 167.649V124.712ZM596.661 124.712C599.324 124.712 601.778 125.212 604.025 126.21C606.355 127.209 608.352 128.582 610.016 130.329C611.764 131.993 613.137 133.99 614.135 136.32C615.134 138.567 615.633 141.022 615.633 143.684V193.112C615.633 195.691 615.134 198.146 614.135 200.476C613.137 202.806 611.764 204.845 610.016 206.592C608.352 208.256 606.355 209.588 604.025 210.586C601.778 211.585 599.324 212.084 596.661 212.084H575.692C573.112 212.084 570.657 211.585 568.327 210.586C565.998 209.588 563.959 208.256 562.211 206.592C560.547 204.845 559.216 202.806 558.217 200.476C557.219 198.146 556.72 195.691 556.72 193.112V143.31C556.72 140.73 557.219 138.317 558.217 136.071C559.216 133.824 560.547 131.868 562.211 130.204C563.876 128.457 565.831 127.125 568.078 126.21C570.325 125.212 572.738 124.712 575.317 124.712H596.661ZM595.912 149.551C595.912 147.554 595.205 145.89 593.79 144.558C592.376 143.144 590.711 142.436 588.797 142.436H583.555C581.641 142.436 579.977 143.144 578.562 144.558C577.148 145.89 576.441 147.554 576.441 149.551V187.245C576.441 189.243 577.148 190.948 578.562 192.363C579.977 193.694 581.641 194.36 583.555 194.36H588.797C590.711 194.36 592.376 193.694 593.79 192.363C595.205 190.948 595.912 189.243 595.912 187.245V149.551ZM624.877 212.084V124.712H644.473V212.084H624.877ZM671.843 149.551C671.843 151.298 672.676 152.921 674.34 154.419C676.004 155.833 678.084 157.289 680.581 158.787C683.077 160.202 685.781 161.741 688.694 163.405C691.606 164.986 694.31 166.776 696.807 168.773C699.303 170.77 701.383 173.016 703.048 175.513C704.712 178.009 705.544 180.921 705.544 184.25V193.112C705.544 195.691 705.045 198.146 704.046 200.476C703.048 202.806 701.675 204.845 699.927 206.592C698.263 208.256 696.266 209.588 693.936 210.586C691.689 211.585 689.235 212.084 686.572 212.084H653.121V194.36H678.958C680.955 194.36 682.619 193.694 683.951 192.363C685.365 190.948 686.073 189.243 686.073 187.245C686.073 185.082 685.24 183.251 683.576 181.754C681.912 180.173 679.832 178.716 677.335 177.385C674.839 175.97 672.135 174.556 669.222 173.141C666.31 171.727 663.606 170.104 661.109 168.273C658.613 166.359 656.533 164.113 654.868 161.533C653.204 158.954 652.372 155.792 652.372 152.047V143.31C652.372 140.73 652.871 138.317 653.87 136.071C654.868 133.824 656.2 131.868 657.864 130.204C659.528 128.457 661.484 127.125 663.73 126.21C665.977 125.212 668.39 124.712 670.97 124.712H703.672V142.436H678.958C676.961 142.436 675.255 143.144 673.841 144.558C672.509 145.89 671.843 147.554 671.843 149.551ZM783.773 124.712H803.369V212.084H783.773V180.131H763.927V212.084H744.331V124.712H763.927V162.532H783.773V124.712ZM844.522 124.712L870.734 212.084H849.765L847.768 203.222H830.793L828.796 212.084H807.826L834.038 124.712H844.522ZM843.774 185.498L839.28 166.276L834.912 185.498H843.774ZM913.335 124.712C915.997 124.712 918.452 125.212 920.699 126.21C923.029 127.209 925.026 128.582 926.69 130.329C928.437 131.993 929.81 133.99 930.809 136.32C931.807 138.567 932.307 141.022 932.307 143.684V193.112C932.307 197.605 930.934 201.558 928.188 204.969C925.525 208.298 922.072 210.503 917.828 211.585L927.564 227.686H905.471L896.11 212.084H892.365C889.786 212.084 887.331 211.585 885.001 210.586C882.671 209.588 880.633 208.256 878.885 206.592C877.221 204.845 875.89 202.806 874.891 200.476C873.892 198.146 873.393 195.691 873.393 193.112V143.31C873.393 140.73 873.892 138.317 874.891 136.071C875.89 133.824 877.221 131.868 878.885 130.204C880.549 128.457 882.505 127.125 884.752 126.21C886.998 125.212 889.411 124.712 891.991 124.712H913.335ZM912.586 149.551C912.586 147.554 911.878 145.89 910.464 144.558C909.049 143.144 907.385 142.436 905.471 142.436H900.229C898.315 142.436 896.651 143.144 895.236 144.558C893.822 145.89 893.114 147.554 893.114 149.551V187.245C893.114 189.243 893.822 190.948 895.236 192.363C896.651 193.694 898.315 194.36 900.229 194.36H905.471C907.385 194.36 909.049 193.694 910.464 192.363C911.878 190.948 912.586 189.243 912.586 187.245V149.551Z" fill="white"/>
</svg>
