<svg width="268" height="153" viewBox="0 0 268 153" fill="none" xmlns="http://www.w3.org/2000/svg">
<path d="M159.534 33.0639C158.745 29.8776 156.904 27.0315 153.722 25.615C153.019 25.3042 151.608 25.0752 150.679 24.9574C150.107 24.8822 149.611 24.5289 149.361 24.0218L137.603 0C137.603 0 123.366 49.3424 111.286 24.0578C111.286 24.0578 102.747 39.6689 113.2 45.7798C113.899 46.1887 115.52 46.7776 117.647 46.9379C122.783 34.101 133.885 24.9476 146.844 25.35C145.985 25.5986 145.15 25.9127 144.328 26.2562C135.629 29.8874 129.185 37.3429 127.068 46.4864C125.024 55.3061 127.48 64.816 132.963 72C129.514 60.5763 143.865 26.5081 157.294 46.9543C157.294 46.9543 159.358 41.6742 159.567 40.7648C160.126 38.344 160.17 35.5927 159.544 33.0607H159.537L159.534 33.0639Z" fill="white"/>
<path d="M21.7463 86.8375V92.1804H14.7017V111H8.03149V92.1804H0.986921V86.8375H21.7463ZM35.51 111.545C27.8529 111.545 23.2586 106.712 23.2586 98.9528C23.2586 91.1255 27.8529 86.293 35.51 86.293C43.1671 86.293 47.7274 91.1255 47.7274 98.9528C47.7274 106.712 43.1671 111.545 35.51 111.545ZM30.167 98.9528C30.167 103.547 32.1068 106.202 35.51 106.202C38.9472 106.202 40.887 103.547 40.887 98.9528C40.887 94.3244 38.9472 91.6359 35.51 91.6359C32.1068 91.6359 30.167 94.3244 30.167 98.9528ZM71.5858 102.084C71.5858 107.869 67.502 111.545 61.0359 111.545C54.5699 111.545 50.5201 107.869 50.5201 102.084V86.8034H57.2244V102.084C57.2244 104.84 58.6537 106.202 61.0359 106.202C63.4522 106.202 64.8815 104.84 64.8815 102.084V86.8034H71.5858V102.084ZM86.8283 86.8375C91.7629 86.8375 95.8127 89.2877 95.8127 94.0522C95.8127 97.2512 94.1791 99.225 91.2864 100.008C94.009 100.28 95.2682 101.539 95.4723 104.194L96.0169 111H89.3126L88.9382 105.419C88.8021 103.411 87.8833 102.764 85.5691 102.764H81.9958V111H75.2915V86.8375H86.8283ZM81.9958 97.3873H85.6031C87.8152 97.3873 89.0063 96.5025 89.0063 94.8009C89.0063 93.0993 87.8152 92.1804 85.6031 92.1804H81.9958V97.3873ZM99.2201 86.8375H105.992L113.99 100.654V86.8375H120.694V111H113.718L105.924 97.8978V111H99.2201V86.8375ZM136.243 111.545C128.585 111.545 123.991 106.712 123.991 98.9528C123.991 91.1255 128.585 86.293 136.243 86.293C143.9 86.293 148.46 91.1255 148.46 98.9528C148.46 106.712 143.9 111.545 136.243 111.545ZM130.9 98.9528C130.9 103.547 132.839 106.202 136.243 106.202C139.68 106.202 141.62 103.547 141.62 98.9528C141.62 94.3244 139.68 91.6359 136.243 91.6359C132.839 91.6359 130.9 94.3244 130.9 98.9528ZM151.165 86.8375H157.869V111H151.165V86.8375ZM168.024 102.594C168.398 104.738 169.896 106.099 172.414 106.099C174.218 106.099 175.409 105.385 175.375 104.058C175.307 102.73 174.218 102.05 171.121 101.335C165.029 99.9397 161.83 97.6596 161.83 93.7799C161.83 89.1856 165.778 86.293 171.835 86.293C177.383 86.293 181.228 89.6621 181.807 94.8009L175.239 95.0731C175.034 92.8611 173.707 91.5679 171.631 91.5679C169.725 91.5679 168.432 92.4867 168.602 93.9161C168.704 95.3454 170.406 95.958 172.686 96.4344C178.71 97.5575 182.113 100.008 182.113 103.955C182.113 108.618 178.063 111.408 172.312 111.408C166.016 111.408 161.728 108.141 161.388 102.9L168.024 102.594ZM193.04 111V86.8375H199.744V96.1622H206.857V86.8375H213.561V111H206.857V101.539H199.744V111H193.04ZM216.575 111L225.287 86.8375H232.876L241.588 111H234.782L233.421 107.018H224.709L223.347 111H216.575ZM226.478 101.811H231.685L229.099 94.1883L226.478 101.811ZM254.122 111.545C246.839 111.545 241.972 106.236 241.972 98.9528C241.972 91.67 246.839 86.293 254.122 86.293C261.404 86.293 266.237 91.67 266.237 98.9528C266.237 103.071 264.672 106.61 261.983 108.856L265.352 112.94H260.69L258.886 110.694C257.457 111.238 255.823 111.545 254.122 111.545ZM248.813 98.9528C248.813 102.73 250.344 106.202 254.122 106.202C254.462 106.202 254.802 106.167 255.109 106.065L251.876 102.118H256.538L258.001 103.955C258.954 102.696 259.397 100.893 259.397 98.9528C259.397 95.1752 257.899 91.6359 254.122 91.6359C250.31 91.6359 248.813 95.1752 248.813 98.9528Z" fill="white"/>
<rect x="48.2117" y="126" width="170.868" height="26.7411" rx="2.83598" fill="#DCFC35"/>
<path d="M63.6049 144.871L67.961 132.789H71.7555L76.1116 144.871H72.7084L72.0278 142.88H67.6717L66.9911 144.871H63.6049ZM68.5566 140.276H71.16L69.8668 136.465L68.5566 140.276ZM77.525 135.852H80.741L80.792 137.741C81.1664 136.499 81.864 135.852 82.9871 135.852H83.7698V138.183H82.9531C81.4046 138.183 80.8261 138.796 80.8261 140.106V144.871H77.525V135.852ZM84.8475 138.745C85.1879 136.686 86.7023 135.648 89.3738 135.648C92.4026 135.648 93.8659 136.975 93.8659 139.664V141.978C93.8659 142.71 94.1552 142.795 94.4445 142.795H94.7508V144.871L94.3934 144.905C94.0191 144.939 91.6369 145.415 91.2455 143.509C90.752 144.513 89.7141 145.075 87.9274 145.075C86.0727 145.075 84.6944 144.071 84.6944 142.488C84.6944 140.94 85.8515 140.191 88.1486 139.732L90.5138 139.255C90.5138 138.064 90.1565 137.537 89.3567 137.537C88.6591 137.537 88.2507 137.962 88.1146 138.864L84.8475 138.745ZM88.0805 142.335C88.0805 142.812 88.4719 143.152 89.1355 143.152C90.0033 143.152 90.5649 142.454 90.5649 141.144V141.059L89.4929 141.263C88.6251 141.416 88.0805 141.655 88.0805 142.335ZM96.0696 135.852H99.0134L99.0985 137.213C99.5749 136.227 100.46 135.648 101.566 135.648C102.791 135.648 103.676 136.329 104.084 137.486C104.578 136.244 105.513 135.648 106.654 135.648C108.474 135.648 109.733 136.788 109.733 139.068V144.871H106.432V140.208C106.432 138.813 106.16 138.183 105.445 138.183C104.646 138.183 104.322 138.847 104.322 140.208V144.871H101.498V140.208C101.498 138.779 101.225 138.183 100.494 138.183C99.711 138.183 99.3707 138.847 99.3707 140.208V144.871H96.0696V135.852ZM119.822 132.789C123.872 132.789 126.135 134.967 126.135 138.847C126.135 142.71 123.906 144.871 119.924 144.871H115.381V132.789H119.822ZM118.733 142.199H119.822C121.847 142.199 122.766 141.144 122.766 138.83C122.766 136.516 121.847 135.461 119.822 135.461H118.733V142.199ZM127.459 135.852H130.675L130.726 137.741C131.101 136.499 131.798 135.852 132.921 135.852H133.704V138.183H132.887C131.339 138.183 130.76 138.796 130.76 140.106V144.871H127.459V135.852ZM134.782 138.745C135.122 136.686 136.637 135.648 139.308 135.648C142.337 135.648 143.8 136.975 143.8 139.664V141.978C143.8 142.71 144.089 142.795 144.379 142.795H144.685V144.871L144.328 144.905C143.953 144.939 141.571 145.415 141.18 143.509C140.686 144.513 139.648 145.075 137.862 145.075C136.007 145.075 134.629 144.071 134.629 142.488C134.629 140.94 135.786 140.191 138.083 139.732L140.448 139.255C140.448 138.064 140.091 137.537 139.291 137.537C138.593 137.537 138.185 137.962 138.049 138.864L134.782 138.745ZM138.015 142.335C138.015 142.812 138.406 143.152 139.07 143.152C139.938 143.152 140.499 142.454 140.499 141.144V141.059L139.427 141.263C138.559 141.416 138.015 141.655 138.015 142.335ZM147.092 136.124C147.092 133.878 148.181 132.789 150.665 132.789H152.792V135.12H151.312C150.768 135.12 150.41 135.512 150.41 136.124V136.465H152.656V138.813H150.41V144.871H147.092V138.813H145.697V136.465H147.092V136.124ZM155.386 133.793H158.687V135.852H161.035V138.166H158.687V141.552C158.687 142.165 159.044 142.539 159.623 142.539H161.086V144.871H158.738C156.509 144.871 155.386 143.816 155.386 141.552V138.166H153.821V135.852H155.386V133.793ZM171.369 132.789C174.398 132.789 176.252 134.372 176.252 136.924C176.252 139.46 174.398 141.042 171.369 141.042H169.548V144.871H166.196V132.789H171.369ZM169.548 138.371H171.114C172.169 138.371 172.849 137.877 172.849 136.924C172.849 135.971 172.169 135.461 171.114 135.461H169.548V138.371ZM177.759 135.852H181.06V144.871H177.759V135.852ZM177.708 134.848V132.789H181.111V134.848H177.708ZM188.868 139.596C188.748 138.558 188.204 138.013 187.421 138.013C186.4 138.013 185.839 138.864 185.839 140.361C185.839 141.859 186.4 142.71 187.421 142.71C188.255 142.71 188.782 142.199 188.902 141.093L192.288 141.195C192.067 143.577 190.161 145.075 187.421 145.075C184.426 145.075 182.453 143.203 182.453 140.361C182.453 137.52 184.426 135.648 187.421 135.648C190.093 135.648 192.015 137.094 192.254 139.46L188.868 139.596ZM193.429 132.789H196.73V138.728L199.453 135.852H203.196L199.691 139.443L203.366 144.871H199.878L197.632 141.212L196.73 142.182V144.871H193.429V132.789Z" fill="#101205"/>
</svg>
