<svg width="538" height="127" viewBox="0 0 538 127" fill="none" xmlns="http://www.w3.org/2000/svg">
<path d="M59.2597 38.7133C58.3525 34.9825 56.2357 31.6501 52.5762 29.9916C51.7685 29.6277 50.1455 29.3596 49.0775 29.2217C48.4191 29.1336 47.8487 28.7199 47.5616 28.1262L34.0415 0C34.0415 0 17.6695 57.7731 3.77809 28.1684C3.77809 28.1684 -6.04048 46.4468 5.97913 53.6019C6.78299 54.0807 8.64718 54.7701 11.0932 54.9578C16.9997 39.9275 29.7657 29.2102 44.6678 29.6813C43.6802 29.9725 42.7193 30.3402 41.7739 30.7424C31.7715 34.994 24.3607 43.7234 21.9262 54.4292C19.5758 64.7558 22.4008 75.8906 28.7054 84.3021C24.7397 70.9265 41.2418 31.0373 56.6835 54.977C56.6835 54.977 59.0568 48.7948 59.298 47.7299C59.9411 44.8955 59.9908 41.6742 59.2712 38.7095H59.2636L59.2597 38.7133Z" fill="white"/>
<path d="M110.236 20.2844V29.572H97.9909V62.2859H86.3961V29.572H74.1506V20.2844H110.236ZM134.162 63.2324C120.851 63.2324 112.865 54.8321 112.865 41.3443C112.865 27.7382 120.851 19.3379 134.162 19.3379C147.472 19.3379 155.399 27.7382 155.399 41.3443C155.399 54.8321 147.472 63.2324 134.162 63.2324ZM124.874 41.3443C124.874 49.3305 128.246 53.9447 134.162 53.9447C140.137 53.9447 143.509 49.3305 143.509 41.3443C143.509 33.2989 140.137 28.6255 134.162 28.6255C128.246 28.6255 124.874 33.2989 124.874 41.3443ZM196.872 46.7867C196.872 56.8434 189.773 63.2324 178.533 63.2324C167.293 63.2324 160.254 56.8434 160.254 46.7867V20.2252H171.908V46.7867C171.908 51.5785 174.392 53.9447 178.533 53.9447C182.733 53.9447 185.218 51.5785 185.218 46.7867V20.2252H196.872V46.7867ZM223.368 20.2844C231.946 20.2844 238.985 24.5437 238.985 32.8257C238.985 38.3864 236.146 41.8175 231.117 43.1782C235.85 43.6514 238.039 45.8402 238.394 50.4545L239.34 62.2859H227.686L227.036 52.5841C226.799 49.0939 225.202 47.9699 221.179 47.9699H214.968V62.2859H203.314V20.2844H223.368ZM214.968 38.6231H221.238C225.083 38.6231 227.154 37.085 227.154 34.1271C227.154 31.1693 225.083 29.572 221.238 29.572H214.968V38.6231ZM244.908 20.2844H256.681L270.583 44.3021V20.2844H282.236V62.2859H270.109L256.562 39.5104V62.2859H244.908V20.2844ZM309.264 63.2324C295.954 63.2324 287.968 54.8321 287.968 41.3443C287.968 27.7382 295.954 19.3379 309.264 19.3379C322.575 19.3379 330.502 27.7382 330.502 41.3443C330.502 54.8321 322.575 63.2324 309.264 63.2324ZM299.977 41.3443C299.977 49.3305 303.349 53.9447 309.264 53.9447C315.239 53.9447 318.611 49.3305 318.611 41.3443C318.611 33.2989 315.239 28.6255 309.264 28.6255C303.349 28.6255 299.977 33.2989 299.977 41.3443ZM335.204 20.2844H346.858V62.2859H335.204V20.2844ZM364.509 47.6741C365.16 51.401 367.763 53.7673 372.14 53.7673C375.276 53.7673 377.346 52.525 377.287 50.2178C377.169 47.9107 375.276 46.7276 369.892 45.4853C359.303 43.0598 353.743 39.0963 353.743 32.3524C353.743 24.3662 360.605 19.3379 371.135 19.3379C380.777 19.3379 387.462 25.1944 388.468 34.1271L377.05 34.6004C376.696 30.7552 374.388 28.5072 370.78 28.5072C367.467 28.5072 365.219 30.1044 365.515 32.589C365.692 35.0736 368.65 36.1385 372.614 36.9667C383.084 38.9188 389 43.1782 389 50.0404C389 58.1449 381.96 62.9958 371.963 62.9958C361.019 62.9958 353.565 57.3167 352.974 48.2065L364.509 47.6741ZM407.995 62.2859V20.2844H419.649V36.4934H432.012V20.2844H443.666V62.2859H432.012V45.8402H419.649V62.2859H407.995ZM448.905 62.2859L464.05 20.2844H477.242L492.386 62.2859H480.555L478.188 55.3645H463.044L460.678 62.2859H448.905ZM466.12 46.3135H475.171L470.675 33.0623L466.12 46.3135ZM514.172 63.2324C501.513 63.2324 493.053 54.0039 493.053 41.3443C493.053 28.6847 501.513 19.3379 514.172 19.3379C526.832 19.3379 535.232 28.6847 535.232 41.3443C535.232 48.5023 532.511 54.6546 527.838 58.559L533.694 65.6578H525.59L522.454 61.7535C519.97 62.7 517.13 63.2324 514.172 63.2324ZM504.944 41.3443C504.944 47.9107 507.606 53.9447 514.172 53.9447C514.764 53.9447 515.355 53.8856 515.888 53.7081L510.268 46.8459H518.373L520.916 50.0404C522.573 47.8516 523.342 44.7162 523.342 41.3443C523.342 34.7779 520.739 28.6255 514.172 28.6255C507.547 28.6255 504.944 34.7779 504.944 41.3443Z" fill="white"/>
<rect x="268" y="84" width="269" height="43" rx="2" fill="white"/>
<path d="M303.648 113.5L309.792 96.46H315.144L321.288 113.5H316.488L315.528 110.692H309.384L308.424 113.5H303.648ZM310.632 107.02H314.304L312.48 101.644L310.632 107.02ZM323.282 100.78H327.818L327.89 103.444C328.418 101.692 329.402 100.78 330.986 100.78H332.09V104.068H330.938C328.754 104.068 327.938 104.932 327.938 106.78V113.5H323.282V100.78ZM333.61 104.86C334.09 101.956 336.226 100.492 339.994 100.492C344.266 100.492 346.33 102.364 346.33 106.156V109.42C346.33 110.452 346.738 110.572 347.146 110.572H347.578V113.5L347.074 113.548C346.546 113.596 343.186 114.268 342.634 111.58C341.938 112.996 340.474 113.788 337.954 113.788C335.338 113.788 333.394 112.372 333.394 110.14C333.394 107.956 335.026 106.9 338.266 106.252L341.602 105.58C341.602 103.9 341.098 103.156 339.97 103.156C338.986 103.156 338.41 103.756 338.218 105.028L333.61 104.86ZM338.17 109.924C338.17 110.596 338.722 111.076 339.658 111.076C340.882 111.076 341.674 110.092 341.674 108.244V108.124L340.162 108.412C338.938 108.628 338.17 108.964 338.17 109.924ZM349.438 100.78H353.59L353.71 102.7C354.382 101.308 355.63 100.492 357.19 100.492C358.918 100.492 360.166 101.452 360.742 103.084C361.438 101.332 362.758 100.492 364.366 100.492C366.934 100.492 368.71 102.1 368.71 105.316V113.5H364.054V106.924C364.054 104.956 363.67 104.068 362.662 104.068C361.534 104.068 361.078 105.004 361.078 106.924V113.5H357.094V106.924C357.094 104.908 356.71 104.068 355.678 104.068C354.574 104.068 354.094 105.004 354.094 106.924V113.5H349.438V100.78ZM382.94 96.46C388.652 96.46 391.844 99.532 391.844 105.004C391.844 110.452 388.7 113.5 383.084 113.5H376.676V96.46H382.94ZM381.404 109.732H382.94C385.796 109.732 387.092 108.244 387.092 104.98C387.092 101.716 385.796 100.228 382.94 100.228H381.404V109.732ZM393.711 100.78H398.247L398.319 103.444C398.847 101.692 399.831 100.78 401.415 100.78H402.519V104.068H401.367C399.183 104.068 398.367 104.932 398.367 106.78V113.5H393.711V100.78ZM404.039 104.86C404.519 101.956 406.655 100.492 410.423 100.492C414.695 100.492 416.759 102.364 416.759 106.156V109.42C416.759 110.452 417.167 110.572 417.575 110.572H418.007V113.5L417.503 113.548C416.975 113.596 413.615 114.268 413.063 111.58C412.367 112.996 410.903 113.788 408.383 113.788C405.767 113.788 403.823 112.372 403.823 110.14C403.823 107.956 405.455 106.9 408.695 106.252L412.031 105.58C412.031 103.9 411.527 103.156 410.399 103.156C409.415 103.156 408.839 103.756 408.647 105.028L404.039 104.86ZM408.599 109.924C408.599 110.596 409.151 111.076 410.087 111.076C411.311 111.076 412.103 110.092 412.103 108.244V108.124L410.591 108.412C409.367 108.628 408.599 108.964 408.599 109.924ZM421.402 101.164C421.402 97.996 422.938 96.46 426.442 96.46H429.442V99.748H427.354C426.586 99.748 426.082 100.3 426.082 101.164V101.644H429.25V104.956H426.082V113.5H421.402V104.956H419.434V101.644H421.402V101.164ZM433.1 97.876H437.756V100.78H441.068V104.044H437.756V108.82C437.756 109.684 438.26 110.212 439.076 110.212H441.14V113.5H437.828C434.684 113.5 433.1 112.012 433.1 108.82V104.044H430.892V100.78H433.1V97.876ZM455.643 96.46C459.915 96.46 462.531 98.692 462.531 102.292C462.531 105.868 459.915 108.1 455.643 108.1H453.075V113.5H448.347V96.46H455.643ZM453.075 104.332H455.283C456.771 104.332 457.731 103.636 457.731 102.292C457.731 100.948 456.771 100.228 455.283 100.228H453.075V104.332ZM464.657 100.78H469.312V113.5H464.657V100.78ZM464.585 99.364V96.46H469.385V99.364H464.585ZM480.324 106.06C480.156 104.596 479.388 103.828 478.284 103.828C476.844 103.828 476.052 105.028 476.052 107.14C476.052 109.252 476.844 110.452 478.284 110.452C479.46 110.452 480.204 109.732 480.372 108.172L485.148 108.316C484.836 111.676 482.148 113.788 478.284 113.788C474.06 113.788 471.276 111.148 471.276 107.14C471.276 103.132 474.06 100.492 478.284 100.492C482.052 100.492 484.764 102.532 485.1 105.868L480.324 106.06ZM486.758 96.46H491.414V104.836L495.254 100.78H500.534L495.59 105.844L500.774 113.5H495.854L492.686 108.34L491.414 109.708V113.5H486.758V96.46Z" fill="#101205"/>
</svg>
