<svg width="915" height="332" viewBox="0 0 915 332" fill="none" xmlns="http://www.w3.org/2000/svg">
<path d="M152.62 99.651C150.283 90.0478 144.831 81.4699 135.407 77.2007C133.327 76.264 129.147 75.5739 126.396 75.2189C124.7 74.9921 123.231 73.9273 122.492 72.3991L87.6717 0C87.6717 0 45.5068 148.712 9.73023 72.5075C9.73023 72.5075 -15.5569 119.558 15.3989 137.975C17.4692 139.208 22.2703 140.982 28.5699 141.466C43.7816 102.777 76.6598 75.1893 115.039 76.4021C112.496 77.1514 110.021 78.0979 107.586 79.1332C81.8256 90.0773 62.7395 112.547 56.4695 140.105C50.4164 166.686 57.692 195.348 73.9289 217C63.7155 182.57 106.216 79.8924 145.985 141.515C145.985 141.515 152.097 125.601 152.718 122.861C154.375 115.564 154.503 107.272 152.649 99.6412H152.63L152.62 99.651Z" fill="white"/>
<path d="M193.819 20.7892V65.5972H211.486V77H181.212V20.7892H193.819ZM227.069 55.2384V65.5972H244.735V77H214.462V20.7892H243.852V32.192H227.069V43.8357H237.026V55.2384H227.069ZM262.294 20.7892H269.039L285.903 77H272.412L271.127 71.2986H260.206L258.922 77H245.431L262.294 20.7892ZM262.856 59.8959H268.558L265.667 47.5295L262.856 59.8959ZM313.069 57.4868H306.484V46.0841H325.114V74.7516C319.573 76.9197 312.828 78.1242 306.645 78.1242C296.527 78.1242 287.774 74.8319 287.774 66.5609V31.389C287.774 25.6073 292.512 20.8695 298.294 20.8695H322.866V32.2723H304.477C302.148 32.2723 300.301 34.1192 300.301 36.448V60.1368C300.301 64.3124 303.593 66.8018 308.09 66.8018C309.616 66.8018 311.302 66.4806 313.069 65.9185V57.4868ZM355.413 60.1368V20.7892H368.101V62.4655C368.101 70.4956 361.597 77 353.647 77H344.412C336.543 77 330.199 70.6562 330.199 62.7867V20.7892H342.886V60.1368C342.886 63.1882 345.135 65.5972 348.186 65.5972H350.113C353.165 65.5972 355.413 63.1882 355.413 60.1368ZM386.809 55.2384V65.5972H404.475V77H374.201V20.7892H403.591V32.192H386.809V43.8357H396.766V55.2384H386.809ZM453.994 20.7892C460.739 20.7892 466.199 26.2497 466.199 32.995V64.7942C466.199 71.5395 460.739 77 453.994 77H440.503C433.758 77 428.297 71.5395 428.297 64.7942V32.7541C428.297 26.1694 433.677 20.7892 440.262 20.7892H453.994ZM453.512 61.0201V36.7692C453.512 34.1995 451.424 32.192 448.935 32.192H445.562C443.073 32.192 440.985 34.1995 440.985 36.7692V61.0201C440.985 63.5897 443.073 65.5972 445.562 65.5972H448.935C451.424 65.5972 453.512 63.5897 453.512 61.0201ZM472.147 77V20.7892H501.537V32.192H484.754V47.2083H494.711V58.6111H484.754V77H472.147ZM537.687 20.7892V65.5972H555.353V77H525.079V20.7892H537.687ZM570.936 55.2384V65.5972H588.603V77H558.329V20.7892H587.719V32.192H570.936V43.8357H580.894V55.2384H570.936ZM617.805 57.4868H611.221V46.0841H629.85V74.7516C624.31 76.9197 617.564 78.1242 611.381 78.1242C601.263 78.1242 592.51 74.8319 592.51 66.5609V31.389C592.51 25.6073 597.248 20.8695 603.03 20.8695H627.602V32.2723H609.213C606.884 32.2723 605.037 34.1192 605.037 36.448V60.1368C605.037 64.3124 608.33 66.8018 612.827 66.8018C614.352 66.8018 616.039 66.4806 617.805 65.9185V57.4868ZM647.944 55.2384V65.5972H665.61V77H635.337V20.7892H664.727V32.192H647.944V43.8357H657.901V55.2384H647.944ZM695.295 48.4128V20.7892H707.902V77H701.237V76.9197L682.527 50.2597V77H669.919V20.7892H676.584L695.295 48.4128ZM739.276 57.4868H732.692V46.0841H751.321V74.7516C745.781 76.9197 739.035 78.1242 732.852 78.1242C722.734 78.1242 713.981 74.8319 713.981 66.5609V31.389C713.981 25.6073 718.719 20.8695 724.501 20.8695H749.073V32.2723H730.684C728.355 32.2723 726.508 34.1192 726.508 36.448V60.1368C726.508 64.3124 729.801 66.8018 734.298 66.8018C735.823 66.8018 737.51 66.4806 739.276 65.9185V57.4868ZM767.889 36.7692C767.889 43.4341 789.571 46.325 789.571 59.0929V64.7942C789.571 71.5395 784.11 77 777.365 77H755.844V65.5972H772.466C775.036 65.5972 777.044 63.5897 777.044 61.0201C777.044 52.7491 755.362 52.6688 755.362 38.3752V32.7541C755.362 26.1694 760.742 20.7892 767.327 20.7892H788.366V32.192H772.466C769.897 32.192 767.889 34.1995 767.889 36.7692Z" fill="white"/>
<path d="M177.501 107.628H235.291V125.352H215.57V195H195.974V125.352H177.501V107.628ZM278.984 107.628C281.646 107.628 284.101 108.128 286.348 109.126C288.678 110.125 290.675 111.498 292.339 113.245C294.086 114.909 295.459 116.906 296.458 119.236C297.456 121.483 297.956 123.938 297.956 126.6V176.028C297.956 178.607 297.456 181.062 296.458 183.392C295.459 185.722 294.086 187.761 292.339 189.508C290.675 191.172 288.678 192.504 286.348 193.502C284.101 194.501 281.646 195 278.984 195H258.014C255.435 195 252.98 194.501 250.65 193.502C248.32 192.504 246.282 191.172 244.534 189.508C242.87 187.761 241.539 185.722 240.54 183.392C239.541 181.062 239.042 178.607 239.042 176.028V126.226C239.042 123.646 239.541 121.233 240.54 118.987C241.539 116.74 242.87 114.784 244.534 113.12C246.198 111.373 248.154 110.041 250.401 109.126C252.647 108.128 255.06 107.628 257.64 107.628H278.984ZM278.235 132.467C278.235 130.47 277.527 128.806 276.113 127.474C274.698 126.06 273.034 125.352 271.12 125.352H265.878C263.964 125.352 262.3 126.06 260.885 127.474C259.471 128.806 258.763 130.47 258.763 132.467V170.161C258.763 172.159 259.471 173.864 260.885 175.279C262.3 176.61 263.964 177.276 265.878 177.276H271.12C273.034 177.276 274.698 176.61 276.113 175.279C277.527 173.864 278.235 172.159 278.235 170.161V132.467ZM345.768 107.628H365.489V172.408C365.489 175.487 364.907 178.399 363.742 181.145C362.577 183.891 360.954 186.304 358.874 188.385C356.877 190.465 354.505 192.088 351.759 193.253C349.014 194.418 346.101 195 343.022 195H328.668C325.59 195 322.719 194.418 320.056 193.253C317.393 192.088 315.063 190.507 313.066 188.51C311.069 186.512 309.488 184.183 308.323 181.52C307.158 178.857 306.576 175.986 306.576 172.907V107.628H326.297V168.788C326.297 171.202 327.046 173.24 328.544 174.905C330.125 176.486 332.122 177.276 334.535 177.276H337.53C339.943 177.276 341.899 176.486 343.397 174.905C344.978 173.24 345.768 171.202 345.768 168.788V107.628ZM420.654 156.182C422.651 157.513 424.316 159.219 425.647 161.299C427.062 163.297 428.06 165.668 428.643 168.414L433.885 195H414.289L409.046 172.159C408.381 170.161 407.507 168.664 406.425 167.665C405.344 166.583 403.846 166.043 401.932 166.043H394.568V195H374.971V107.628H411.917C414.58 107.628 417.035 108.128 419.281 109.126C421.611 110.125 423.608 111.498 425.273 113.245C427.02 114.909 428.393 116.906 429.392 119.236C430.39 121.483 430.889 123.938 430.889 126.6V139.332C430.889 143.076 429.932 146.446 428.019 149.442C426.188 152.354 423.733 154.601 420.654 156.182ZM411.543 132.467C411.543 130.47 410.835 128.806 409.421 127.474C408.006 126.06 406.342 125.352 404.428 125.352H394.568V148.319H404.428C406.342 148.319 408.006 147.653 409.421 146.321C410.835 144.907 411.543 143.201 411.543 141.204V132.467ZM480.479 107.628H500.075V195H489.715V194.875L460.633 153.436V195H441.037V107.628H451.396L480.479 150.565V107.628ZM549.217 107.628C551.879 107.628 554.334 108.128 556.581 109.126C558.911 110.125 560.908 111.498 562.572 113.245C564.319 114.909 565.692 116.906 566.691 119.236C567.689 121.483 568.189 123.938 568.189 126.6V176.028C568.189 178.607 567.689 181.062 566.691 183.392C565.692 185.722 564.319 187.761 562.572 189.508C560.908 191.172 558.911 192.504 556.581 193.502C554.334 194.501 551.879 195 549.217 195H528.247C525.668 195 523.213 194.501 520.883 193.502C518.553 192.504 516.515 191.172 514.767 189.508C513.103 187.761 511.772 185.722 510.773 183.392C509.774 181.062 509.275 178.607 509.275 176.028V126.226C509.275 123.646 509.774 121.233 510.773 118.987C511.772 116.74 513.103 114.784 514.767 113.12C516.431 111.373 518.387 110.041 520.634 109.126C522.88 108.128 525.293 107.628 527.873 107.628H549.217ZM548.468 132.467C548.468 130.47 547.76 128.806 546.346 127.474C544.931 126.06 543.267 125.352 541.353 125.352H536.111C534.197 125.352 532.533 126.06 531.118 127.474C529.704 128.806 528.996 130.47 528.996 132.467V170.161C528.996 172.159 529.704 173.864 531.118 175.279C532.533 176.61 534.197 177.276 536.111 177.276H541.353C543.267 177.276 544.931 176.61 546.346 175.279C547.76 173.864 548.468 172.159 548.468 170.161V132.467ZM577.433 195V107.628H597.029V195H577.433ZM624.399 132.467C624.399 134.214 625.231 135.837 626.895 137.335C628.56 138.749 630.64 140.205 633.136 141.703C635.633 143.118 638.337 144.657 641.249 146.321C644.162 147.902 646.866 149.692 649.362 151.689C651.859 153.686 653.939 155.932 655.603 158.429C657.268 160.925 658.1 163.837 658.1 167.166V176.028C658.1 178.607 657.6 181.062 656.602 183.392C655.603 185.722 654.23 187.761 652.483 189.508C650.819 191.172 648.822 192.504 646.492 193.502C644.245 194.501 641.79 195 639.127 195H605.677V177.276H631.514C633.511 177.276 635.175 176.61 636.506 175.279C637.921 173.864 638.628 172.159 638.628 170.161C638.628 167.998 637.796 166.167 636.132 164.67C634.468 163.089 632.387 161.632 629.891 160.301C627.395 158.886 624.69 157.472 621.778 156.057C618.866 154.643 616.161 153.02 613.665 151.189C611.169 149.275 609.088 147.029 607.424 144.449C605.76 141.87 604.928 138.708 604.928 134.963V126.226C604.928 123.646 605.427 121.233 606.426 118.987C607.424 116.74 608.755 114.784 610.42 113.12C612.084 111.373 614.039 110.041 616.286 109.126C618.533 108.128 620.946 107.628 623.525 107.628H656.227V125.352H631.514C629.517 125.352 627.811 126.06 626.396 127.474C625.065 128.806 624.399 130.47 624.399 132.467ZM736.328 107.628H755.925V195H736.328V163.047H716.483V195H696.886V107.628H716.483V145.448H736.328V107.628ZM797.078 107.628L823.29 195H802.32L800.323 186.138H783.348L781.351 195H760.382L786.594 107.628H797.078ZM796.329 168.414L791.836 149.192L787.467 168.414H796.329ZM865.89 107.628C868.553 107.628 871.008 108.128 873.254 109.126C875.584 110.125 877.581 111.498 879.246 113.245C880.993 114.909 882.366 116.906 883.365 119.236C884.363 121.483 884.862 123.938 884.862 126.6V176.028C884.862 180.521 883.489 184.474 880.743 187.885C878.081 191.214 874.627 193.419 870.384 194.501L880.119 210.602H858.027L848.665 195H844.921C842.341 195 839.887 194.501 837.557 193.502C835.227 192.504 833.188 191.172 831.441 189.508C829.777 187.761 828.445 185.722 827.447 183.392C826.448 181.062 825.949 178.607 825.949 176.028V126.226C825.949 123.646 826.448 121.233 827.447 118.987C828.445 116.74 829.777 114.784 831.441 113.12C833.105 111.373 835.06 110.041 837.307 109.126C839.554 108.128 841.967 107.628 844.547 107.628H865.89ZM865.141 132.467C865.141 130.47 864.434 128.806 863.019 127.474C861.605 126.06 859.941 125.352 858.027 125.352H852.784C850.871 125.352 849.206 126.06 847.792 127.474C846.377 128.806 845.67 130.47 845.67 132.467V170.161C845.67 172.159 846.377 173.864 847.792 175.279C849.206 176.61 850.871 177.276 852.784 177.276H858.027C859.941 177.276 861.605 176.61 863.019 175.279C864.434 173.864 865.141 172.159 865.141 170.161V132.467Z" fill="white"/>
<g filter="url(#filter0_d_932_19)">
<rect x="409" y="229" width="481" height="78" rx="6" fill="#DCFC35" shape-rendering="crispEdges"/>
<path d="M448.496 245.2L461.936 290H451.184L450.16 285.456H441.456L440.432 290H429.68L443.12 245.2H448.496ZM448.112 276.368L445.808 266.512L443.568 276.368H448.112ZM487.672 270.096C488.696 270.779 489.549 271.653 490.232 272.72C490.957 273.744 491.469 274.96 491.768 276.368L494.456 290H484.408L481.72 278.288C481.378 277.264 480.93 276.496 480.376 275.984C479.821 275.429 479.053 275.152 478.072 275.152H474.296V290H464.248V245.2H483.192C484.557 245.2 485.816 245.456 486.968 245.968C488.162 246.48 489.186 247.184 490.04 248.08C490.936 248.933 491.64 249.957 492.152 251.152C492.664 252.304 492.92 253.563 492.92 254.928V261.456C492.92 263.376 492.429 265.104 491.448 266.64C490.509 268.133 489.25 269.285 487.672 270.096ZM483 257.936C483 256.912 482.637 256.059 481.912 255.376C481.186 254.651 480.333 254.288 479.352 254.288H474.296V266.064H479.352C480.333 266.064 481.186 265.723 481.912 265.04C482.637 264.315 483 263.44 483 262.416V257.936ZM514.059 245.2L527.499 290H516.747L515.723 285.456H507.019L505.995 290H495.242L508.683 245.2H514.059ZM513.675 276.368L511.371 266.512L509.131 276.368H513.675ZM563.602 245.2L568.018 290H557.586L555.41 270.544L550.866 282.192H545.49L540.946 270.544L538.77 290H528.338L532.69 245.2H538.066L548.178 266.832L558.226 245.2H563.602ZM608.101 245.2C609.466 245.2 610.725 245.456 611.877 245.968C613.072 246.48 614.096 247.184 614.949 248.08C615.845 248.933 616.549 249.957 617.061 251.152C617.573 252.304 617.829 253.563 617.829 254.928V280.272C617.829 281.595 617.573 282.853 617.061 284.048C616.549 285.243 615.845 286.288 614.949 287.184C614.096 288.037 613.072 288.72 611.877 289.232C610.725 289.744 609.466 290 608.101 290H587.685V245.2H608.101ZM607.845 257.936C607.845 256.912 607.482 256.059 606.757 255.376C606.032 254.651 605.178 254.288 604.197 254.288H597.733V280.912H604.197C605.178 280.912 606.032 280.571 606.757 279.888C607.482 279.163 607.845 278.288 607.845 277.264V257.936ZM645.922 270.096C646.946 270.779 647.799 271.653 648.482 272.72C649.207 273.744 649.719 274.96 650.018 276.368L652.706 290H642.658L639.97 278.288C639.628 277.264 639.18 276.496 638.626 275.984C638.071 275.429 637.303 275.152 636.322 275.152H632.546V290H622.498V245.2H641.442C642.807 245.2 644.066 245.456 645.218 245.968C646.412 246.48 647.436 247.184 648.29 248.08C649.186 248.933 649.89 249.957 650.402 251.152C650.914 252.304 651.17 253.563 651.17 254.928V261.456C651.17 263.376 650.679 265.104 649.698 266.64C648.759 268.133 647.5 269.285 645.922 270.096ZM641.25 257.936C641.25 256.912 640.887 256.059 640.162 255.376C639.436 254.651 638.583 254.288 637.602 254.288H632.546V266.064H637.602C638.583 266.064 639.436 265.723 640.162 265.04C640.887 264.315 641.25 263.44 641.25 262.416V257.936ZM672.309 245.2L685.749 290H674.997L673.973 285.456H665.269L664.245 290H653.492L666.933 245.2H672.309ZM671.925 276.368L669.621 266.512L667.381 276.368H671.925ZM688.06 245.2H711.484V254.288H698.108V266.256H706.044V275.344H698.108V290H688.06V245.2ZM711.431 245.2H741.064V254.288H730.952V290H720.904V254.288H711.431V245.2ZM778.763 245.2C780.128 245.2 781.387 245.456 782.539 245.968C783.734 246.48 784.758 247.184 785.611 248.08C786.507 248.933 787.211 249.957 787.723 251.152C788.235 252.304 788.491 253.563 788.491 254.928V266.96C788.491 268.283 788.235 269.541 787.723 270.736C787.211 271.931 786.507 272.976 785.611 273.872C784.758 274.725 783.734 275.408 782.539 275.92C781.387 276.432 780.128 276.688 778.763 276.688H769.483V290H759.435V245.2H778.763ZM778.379 257.936C778.379 256.912 778.016 256.059 777.291 255.376C776.608 254.651 775.755 254.288 774.731 254.288H769.483V267.6H774.731C775.755 267.6 776.608 267.237 777.291 266.512C778.016 265.787 778.379 264.933 778.379 263.952V257.936ZM792.185 290V245.2H802.233V290H792.185ZM806.987 254.736C806.987 253.413 807.243 252.176 807.755 251.024C808.267 249.872 808.95 248.869 809.803 248.016C810.656 247.12 811.659 246.437 812.811 245.968C813.963 245.456 815.2 245.2 816.523 245.2H833.995V254.288H820.619C819.595 254.288 818.72 254.651 817.995 255.376C817.312 256.059 816.971 256.912 816.971 257.936V277.264C816.971 278.288 817.312 279.163 817.995 279.888C818.72 280.571 819.595 280.912 820.619 280.912H833.995V290H816.715C815.392 290 814.134 289.744 812.939 289.232C811.744 288.72 810.699 288.037 809.803 287.184C808.95 286.288 808.267 285.243 807.755 284.048C807.243 282.853 806.987 281.595 806.987 280.272V254.736ZM860.093 268.24C861.074 268.923 861.906 269.797 862.589 270.864C863.314 271.888 863.805 273.083 864.061 274.448L867.581 290H857.597L854.141 276.368C853.799 275.344 853.351 274.576 852.797 274.064C852.242 273.509 851.474 273.232 850.493 273.232H847.421V290H837.373V245.2H847.421V264.144H849.661C850.642 264.144 851.41 263.888 851.965 263.376C852.519 262.864 852.967 262.096 853.309 261.072L856.701 245.2H866.621L863.293 262.992C863.037 264.187 862.631 265.211 862.077 266.064C861.522 266.917 860.861 267.643 860.093 268.24Z" fill="#1B1E0A"/>
</g>
<defs>
<filter id="filter0_d_932_19" x="384" y="204" width="531" height="128" filterUnits="userSpaceOnUse" color-interpolation-filters="sRGB">
<feFlood flood-opacity="0" result="BackgroundImageFix"/>
<feColorMatrix in="SourceAlpha" type="matrix" values="0 0 0 0 0 0 0 0 0 0 0 0 0 0 0 0 0 0 127 0" result="hardAlpha"/>
<feOffset/>
<feGaussianBlur stdDeviation="12.5"/>
<feComposite in2="hardAlpha" operator="out"/>
<feColorMatrix type="matrix" values="0 0 0 0 0.862745 0 0 0 0 0.988235 0 0 0 0 0.207843 0 0 0 0.25 0"/>
<feBlend mode="normal" in2="BackgroundImageFix" result="effect1_dropShadow_932_19"/>
<feBlend mode="normal" in="SourceGraphic" in2="effect1_dropShadow_932_19" result="shape"/>
</filter>
</defs>
</svg>
